<svg xmlns="http://www.w3.org/2000/svg" width="262" height="262" viewBox="0 0 262 262"><g fill="none" fill-rule="evenodd"><circle cx="131.5" cy="131.5" r="122.5" fill="#00AB55"/><path fill="#FFF" fill-rule="nonzero" d="M138.364 56a47.704 47.704 0 0 0-43.447 27.455h-.48l-1.023 3.59a47.66 47.66 0 0 0-1.222 3.706c-.041.137-.103.26-.144.398L66.982 71.101l-8.237 10.988 18.532 15.093H56v13.728h34.771c.288 2.189.741 4.324 1.4 6.369a46.531 46.531 0 0 0 1.243 3.768l1.022 3.59h.48a47.537 47.537 0 0 0 16.474 19.307C86.955 154.466 69.727 178.804 69.727 207h13.728c0-30.2 24.709-54.909 54.909-54.909s54.909 24.71 54.909 54.909H207c0-28.189-17.228-52.54-41.662-63.077a47.565 47.565 0 0 0 16.472-19.286h.48l.207-1.435c2.512-5.854 3.912-12.32 3.912-19.156C186.41 77.278 165.132 56 138.364 56Zm.136 14c10.832-.06 21.045 5.14 27.5 14h-55c6.455-8.86 16.668-14.06 27.5-14Zm-33.81 27h67.62c.069.217.069.49.124.728.345 2.03.566 4.123.566 6.272s-.214 4.242-.566 6.272c-.055.231-.048.511-.124.728h-67.62c-.069-.217-.069-.49-.124-.728-.345-2.03-.566-4.123-.566-6.272s.214-4.242.566-6.272c.055-.231.048-.511.124-.728Zm6.31 27h55c-6.455 8.86-16.668 14.06-27.5 14-10.832.06-21.045-5.14-27.5-14Z"/></g></svg>
