<svg xmlns="http://www.w3.org/2000/svg" viewBox="0 0 453 67">
    <path fill="currentColor" fill-rule="nonzero"
          d="M32.815 66.81c11.34 0 20.25-5.4 25.74-12.24l-11.07-9.45c-3.42 4.23-8.91 7.29-14.67 7.29-10.35 0-17.19-8.1-17.19-18.18 0-11.79 7.83-18.72 17.19-18.72 6.3 0 11.61 3.69 14.67 7.38l11.07-9.36C51.445 4.89 41.545 1.2 32.815 1.2c-21.06 0-32.94 14.76-32.94 33.03 0 21.15 15.3 32.58 32.94 32.58Zm53.46.09c13.95 0 23.76-9.36 23.76-22.86 0-13.59-9.81-22.95-23.76-22.95-14.13 0-23.76 9.54-23.76 22.95 0 13.32 9.63 22.86 23.76 22.86Zm0-12.51c-5.58 0-9.54-4.5-9.54-10.35 0-6.03 3.87-10.35 9.54-10.35 5.49 0 9.54 4.23 9.54 10.35 0 6.03-4.14 10.35-9.54 10.35Zm61.38-54.63v26.91h-.18c-3.15-3.69-7.56-5.58-12.51-5.58-11.34 0-20.07 9.45-20.07 22.95 0 13.59 8.64 22.77 20.7 22.77 5.4 0 9.63-1.89 12.6-5.58h.18V66h13.32V-.24h-14.04Zm-9.09 54.72c-5.49 0-9.45-4.23-9.45-10.44 0-6.21 4.05-10.44 9.45-10.44 5.67 0 9.63 4.41 9.63 10.44 0 6.3-4.14 10.44-9.63 10.44Zm74.61-10.89c0-13.14-9.09-22.5-21.96-22.5-12.87 0-22.32 9.54-22.32 22.86 0 13.68 9.81 22.86 22.86 22.86 9.18 0 15.93-3.69 19.62-8.37l-7.47-8.37c-2.97 3.51-6.57 5.31-10.62 5.31-5.13 0-9.36-2.7-10.35-7.65h29.88c.18-.9.36-2.88.36-4.14Zm-21.78-11.25c4.23 0 7.11 2.7 8.01 7.02l-16.47.09c.9-4.59 4.23-7.11 8.46-7.11Zm29.7 33.66h14.85V45.39h8.28c14.4 0 23.94-7.02 23.94-21.24 0-12.69-7.02-22.05-22.77-22.05h-24.3V66Zm14.85-33.84V15.33h6.48c6.84 0 10.17 3.69 10.17 8.46 0 5.22-3.78 8.37-10.35 8.37h-6.3Zm65.88-11.07c-4.86 0-9.45 2.34-12.78 6.84h-.09v-5.94h-14.13V66h14.13V46.2c0-5.76 3.42-9.99 10.08-9.99.72 0 1.98 0 3.24.09V21.18c-.09-.09-.27-.09-.45-.09Zm13.59-4.41c4.86 0 8.82-3.33 8.82-8.19 0-4.86-3.96-8.19-8.82-8.19s-8.82 3.33-8.82 8.19c0 4.86 3.96 8.19 8.82 8.19ZM308.395 66h13.95V21.99h-13.95V66Zm78.03-44.91c-6.03 0-11.25 2.16-14.85 6.39h-.18c-2.7-4.5-7.2-6.39-12.6-6.39-4.5 0-9 1.98-12.33 5.85h-.18v-4.95h-14.13V66h14.13V43.95c0-6.84 3.15-10.26 7.56-10.26 4.77 0 6.39 4.14 6.39 9.9V66h14.04V43.95c0-6.84 3.24-10.26 7.38-10.26 4.77 0 6.39 4.14 6.39 9.9V66h14.04V40.35c0-13.86-6.39-19.26-15.66-19.26Zm66.6 22.5c0-13.14-9.09-22.5-21.96-22.5-12.87 0-22.32 9.54-22.32 22.86 0 13.68 9.81 22.86 22.86 22.86 9.18 0 15.93-3.69 19.62-8.37l-7.47-8.37c-2.97 3.51-6.57 5.31-10.62 5.31-5.13 0-9.36-2.7-10.35-7.65h29.88c.18-.9.36-2.88.36-4.14Zm-21.78-11.25c4.23 0 7.11 2.7 8.01 7.02l-16.47.09c.9-4.59 4.23-7.11 8.46-7.11Z"/>
</svg>