<svg xmlns="http://www.w3.org/2000/svg" width="325" height="331" viewBox="0 0 325 331"><g fill="none" fill-rule="evenodd"><path fill="#065930" d="M205.881 230.285s-18.431 17.681-18.772 19.719c0 0-.27 1.633.682 3.672 4.557 10.27 22.509 19.721 27.744 21.082 5.238 1.36 5.1.951 7.89.272 8.773-5.031 4.42-16.252-3.127-17.135-2.517-.951-9.793-3.674-10.881-4.627-1.089-.951-.136-2.992-.136-2.992s11.153-9.453 12.783-13.736c1.634-4.284-16.183-6.255-16.183-6.255M74.224 263.877c5.812-5.062 27.474-17.953 27.474-17.953s-6.62-12.104-10.61-12.468c-3.989-.36-19.476 14.925-27.201 15.595-9.385.819-28.222 12.635-24.753 19.315 3.672 7.072 26.656 2.857 35.09-4.489"/><path fill="#065930" d="M1.559 150.043c1.653 5.209 6.885 11.206 22.198 11.206 7.244 0 13.607-1.35 13.875-1.407.02-.002.039-.01.06-.01 9.9-2.455 19.805-4.91 29.707-7.358.049-.017.102-.029.152-.043 8.039-2.348 13.212-4.663 16.14-6.194 5.615-2.935 7.032-5.028 7.433-6.689 1.23.026 2.638.082 4.104.139 2.43.096 5.186.204 7.84.204 2.994 0 5.448-.141 7.473-.437.03.628.063 1.251.095 1.875.527.359 1.057.717 1.585 1.078 8.054 5.467 15.935 8.237 23.43 8.237 13.769 0 21.366-9.279 22.223-10.38 1.013-1.246 12.86-16.214 9.145-32.116-2.78-11.267-14.145-15.701-15.658-16.243a42.153 42.153 0 0 0-1.402-.551c-3.198-1.211-10.862-3.806-17.587-3.806-.4 0-.801.009-1.195.029-.351.015-.69.025-1.015.025-2.5 0-4.27-.515-4.852-1.408-.517-.797-1.01-2.977 1.5-8.638.075-.166.146-.322.209-.473a4.144 4.144 0 0 0 .533-2.079c3.5-.204 4.98-.336 6.032-.743 9.679-3.749 23.592-6.736 23.733-6.766a4.555 4.555 0 0 0 .242-.061c2.22-.629 21.895-6.335 27.895-12.937 5.55-6.103 7.865-13.145 7.515-22.828-.003-.117-.01-.234-.013-.352-.023-.113-.053-.228-.078-.342-1.867-8.329-12.887-25.209-14.135-27.105-.111-.165-.22-.331-.33-.498C175.873 1.326 172.718 0 169.42 0c-3.08 0-5.99 1.192-8.417 3.447-1.63 1.511-3.795 2.898-6.086 4.366-5.254 3.365-11.207 7.182-11.715 13.916a9.938 9.938 0 0 0 .854 4.864c-.21-.006-.42-.008-.625-.008-9.004 0-12.676 4.202-14.17 7.724-2.745 6.467-6.492 7.165-7.973 7.165-.11 0-.192-.004-.241-.007-.33-.079-.66-.156-.99-.232l-6.06 2.651-48.5-4.298c-1.326-1.379-3.294-2.52-5.782-2.52-4.142 0-8.217 3.107-12.455 9.499C36.31 63.082 35.98 73.959 36.015 75.835c-.121 2.704-.618 20.103 6.26 28.224v2.099l-1.284 2.28c-2.702 1.047-9.041 3.636-15.562 7.187-4.44 2.417-8.96 5.284-12.476 8.418-11.308 8.194-15.54 17.871-11.394 26" mask="url(#mask-2)" transform="translate(80.913 94.293)"/><path fill="#16b364" d="M126.994 201.45v-4.625c-7.253-6.528-6.256-26.659-6.256-26.659s-.633-10.245 10.61-27.202c8.899-13.421 13.055-5.439 13.055-5.439l51.141 4.533 5.803-2.537s7.753 1.359 12.331-9.431c4.579-10.791 26.473-2.085 26.473-2.085s-12.781-4.489-12.237-11.698c.544-7.207 10.88-10.471 16.594-15.776 5.713-5.305 11.967-.271 11.967-.271s11.834 17.951 13.599 25.84c.272 7.482-1.088 14.145-6.525 20.129-5.444 5.985-26.115 11.833-26.115 11.833s-14.225 3.034-24.313 6.941c-1.328.515-9.906.543-11.049 1.084-2.091.986 3.523 2.511 2.45 3.535 0 .544-9.251 16.867 7.75 16.051 8.058-.389 18.635 4.08 18.635 4.08s10.88 3.671 13.327 13.601c3.401 14.551-8.432 28.833-8.432 28.833s-14.28 19.179-40.531 1.361c-.493-.334 11.154-7.752 15.096-16.457.002-.005-7.43 9.129-16.592 12.241-8.694 2.951-32.942-1.796-25.707 2.855 1.906 1.225-5.303 6.393-20.673 10.882l-29.65 7.344s-27.881 5.984-31.735-7.527c-3.898-7.161 1.542-15.324 10.247-21.578 9.657-8.704 28.29-15.507 28.29-15.507l2.447-4.351"/><path fill="#0d8249" d="M155.284 232.365s-25.75-27.743-30.737-26.564c-4.806 15.141 8.794 24.209 5.892 30.556-5.507 11.158-33.563 4.825-45.706 1.478a10.262 10.262 0 0 0 1.277 5.051c3.854 13.511 31.735 7.527 31.735 7.527l29.65-7.344a114.705 114.705 0 0 0 7.57-2.489l.319-8.215M231.593 236.162c-8.251 1.335-12.837.372-12.837.372s3.989-1.45 5.62-3.263c-17.689-.774-18.369-7.066-17.95-10.167-4.932 5.866-11.527 10.19-11.155 10.444 17.953 12.186 30.307 7.068 36.322 2.614M240.114 150.349c-2.374.473-5.582.774-3.405-3.579 1.932-3.864-10.518 7.073-10.518 7.073-13.963 6.529-16.138-9.794-9.612-15.957 6.528-6.164 13.781-8.162 24.303-2.901 3.26 1.453 11.239.543 2.174-7.979-7.436-3.988-3.264-6.349-2.358-6.71 14.506-3.085 15.052-11.608 15.052-11.608s-2.357 2.54-3.447 2.177c3.188-6.144 2.589-9.931 1.254-12.17-2.351-.852-5.789-1.194-9.049 1.836-5.714 5.305-16.05 8.569-16.594 15.776-.475 6.296 9.213 10.516 11.677 11.484-3.452-1.27-21.77-7.463-25.913 2.299-4.578 10.79-12.331 9.431-12.331 9.431l-.371.161c-7.198 9.719-25.018 11.173-25.018 11.173s-18.134 3.71-33.549-8.258c-.906-1.088-2.357 16.14-2.357 16.14s10.065-.539 15.503 13.335a2194.791 2194.791 0 0 1 6.257 13.685l7.435 23.759v11.968l-3.082 6.528-1.487 2.791-.276 5.488c3.337-1.953 4.601-3.503 3.666-4.104-7.235-4.651 17.013.096 25.707-2.855 4.554-1.549 8.68-4.581 11.678-7.241-2.614 1.497-8.48 3.939-15.714 2.839-4.896 2.175-15.957-5.441 1.271-16.143 4.952-2.83 22.504-10.841 24.702-23.02a24.498 24.498 0 0 0-3.44-.094c-17.001.816-7.75-15.507-7.75-16.051.752-.719-3.648-2.922-2.36-3.625 1.291-.706 8.271.089 9.921-.58 10.117-4.106 25.351-7.355 25.351-7.355s12.057-3.415 20.18-7.693c-2.558-2.288-10.329-1.448-17.5-.02"/><path fill="#065930" d="m165.78 203.804-3.29-.024.523-2.613a92.196 92.196 0 0 0-.673-1.807c-1.748-4.617-2.144-5.952-1.792-7.243l.408-1.482 1.479-.419c2.134-.603 4.07-2.561 6.119-4.635 3.194-3.237 7.172-7.267 13.5-7.267.592 0 1.198.036 1.807.106 2.203.078 4.917.972 8.044 2.008 3.191 1.054 6.804 2.248 9.309 2.248 1.618 0 1.964-.491 2.076-.655l.176-.252.233-.207c.606-.545 1.448 1.661 2.272 1.661 1.951 0 2.225.352 3.355 1.812l2.493.26-.808 1.547c-.364.691-9.277 16.967-44.327 16.967-.3 0-.601-.002-.904-.005"/><path fill="#1e8050" d="M163.174 192.833c-.274.998 2.721 7.8 2.628 8.252 34.547.272 42.798-15.504 42.798-15.504s-3.717.002-4.349-1.631c-5.08 3.354-15.235-2.721-20.584-2.812-3.844-.477-6.691.768-9.123 2.615-4.054 3.082-6.95 7.833-11.37 9.08"/><path fill="#065930" d="M156.67 188.032c-5.433-6.785-4.965-7.762-4.468-8.792a2.33 2.33 0 0 1 2.124-1.321c.173 0 .345.017.521.051 2.028-.553 9.188-5.402 12.974-8.248-6.161-2.549-20.317-9.289-37.725-28.56l.028.036 1.359-1.361c.126-.136 2.542-2.71 2.72-2.858 2.992-2.447.308-3.625 2.952-3.625.065 0 .126 0 .191.003l.976.046.615.762c10.775 13.375 32.803 24.521 38.294 27.168 7.553-6.706 14.914-15.219 14.382-17.909-.011-.062-.043-.211-.565-.387l-7.988-2.657 8.275-1.547c.25-.044.582-.111.98-.19 2.496-.497 7.135-1.418 10.353-1.418 1.093 0 4.002 0 4.875 2.229l.171.439-.025.473c-.235 4.345-5.976 12.245-18.593 25.571 7.952 3.084 15.464 3.548 15.546 3.553l1.919.813-1.363 2.719c-.859 1.541-.382 3.138-.461 3.951l-.626 2.443-.604.861c-.605.181-1.305.266-2.144.269-5.575 0-17-4.073-21.971-5.952-6.589 6.05-19.348 13.617-19.916 13.953l-1.627.96-1.179-1.475M156.426 287.657c-.695 0-1.42-.158-2.152-.477-1.727-.744-2.856-1.812-3.36-3.172-.761-2.068.119-4.22.993-6.039-2.913 2.821-6.824 6.526-10.418 6.526-1.303 0-2.492-.487-3.442-1.409-.728-.623-1.129-1.474-1.155-2.47-.051-1.76 1.211-3.879 2.642-5.705-.601.074-1.207.117-1.798.117-2.104 0-3.651-.567-4.596-1.684-.837-.988-1.129-2.295-.864-3.886l.184-1.104 1.096-.227c1.663-.345 3.264-.644 4.813-.939 7.994-1.51 14.309-2.699 18.364-7.736 1.583-1.965 3.755-3.002 6.279-3.002 4.665 0 9.469 3.527 10.993 4.752 4.871.009 10.959.476 12.742 2.601.534.639.752 1.424.61 2.215-.627 4.25-5.797 4.885-9.218 5.305-.854.101-1.966.242-2.521.398-.038.545-.01 1.561.015 2.342.111 3.809.264 9.02-3.384 10.584-.967.414-1.84.615-2.671.615-4.101 0-5.036-4.584-5.653-7.619-.054-.268-.117-.572-.181-.881-.112.385-.219.778-.316 1.133-1.126 4.119-2.664 9.762-7.002 9.762M122.892 118.887c-5.38 0-15.585-2.034-23.596-15.621-.141-.185-.301-.41-.482-.665-9.563-12.203-24.182-12.338-24.182-12.338.291-.964 6.39-4.501 15.708-4.501 8.655 0 22.584 2.184 39.976 12.53a3.7 3.7 0 0 1 2.408 1.591c1.318 1.982.879 5.126-1.518 10.853-.424 1.011-1.35 1.665-2.456 1.756.653.822.893 1.754.313 2.927-.529 1.073-.888 1.752-.888 1.752l-.572 1.081-1.189.291c-.142.035-1.464.344-3.522.344"/><path fill="#16b364" d="M129.443 100.939c-28.018-16.864-46.855-11.766-46.651-11.63 12.036 1.566 17.205 10.407 18.769 12.445 10.269 17.545 24.21 14.147 24.21 14.147s.344-.654.852-1.683c.283-.575-15.69-10.136-15.338-10.899 9.317 2.04 17.046 7.241 17.412 6.365 1.741-4.162 3.182-8.859.746-8.745"/><path fill="#065930" d="M119.792 135.649c-3.934 0-8.126-1.061-12.467-3.152a14.764 14.764 0 0 1-1.072-.336c-1.197-.407-2.834-.962-5.272-.962-2.783 0-15.264 3.403-15.264 3.403s2.178-5.271 5.37-7.928c1.486-1.236 3.955-3.104 7.287-4.986 5.763-3.253 15.201-7.132 27.442-7.132 1.278 0 2.581.041 3.871.126 2.846.227 5.059 1.34 6.272 3.136.899 1.335 1.144 2.966.671 4.474l-.468 1.487-.756.173c.077.093.152.194.224.302l.703 1.042-.325 1.26a9.102 9.102 0 0 1-.217.682l.399 1.945-1.914.349c-4.025 4.058-8.896 6.117-14.484 6.117"/><path fill="#16b364" d="M129.511 117.396c-25.163-1.633-39.51 13.874-39.036 13.602 10.746-4.762 16.052-1.362 17.751-1.089 17.273 8.5 24.956-3.742 24.753-2.857-.078-.271.103-.124.408-1.223.132-.473-6.459-1.021-13.871-1.905 4.488-1.971 9.791-1.362 14.517-2.447.579-1.837-1.039-3.802-4.522-4.081"/><path fill="#fecb99" d="M158.005 260.477c-5.259 6.527-13.602 7.072-24.119 9.248-1.089 6.529 10.517 2.358 10.517 2.358s-8.16 7.435-5.258 9.792c4.713 4.715 14.145-9.064 15.234-7.798 2.174 2.177-6.167 8.707.543 11.603 6.712 2.906 6.709-13.597 9.066-12.328 2.359 1.27.733 12.744 7.619 9.793 3.809-1.633 1.813-10.518 2.538-12.33.725-1.811 10.881-.182 11.604-5.078.547-3.082-12.329-2.903-12.329-2.903s-10.156-8.888-15.415-2.357"/><path fill="#065930" d="M142.59 227.834s7.979 30.465 10.881 31.737c-14.144 16.5 25.027 15.777 17.228.363.908-3.447-8.705-40.26-8.705-40.26l-19.404 8.16M249.039 101.437c.364-1.542-25.115-27.383-27.018-27.746-1.906-.362-11.425 10.157-11.425 10.157s18.133 29.195 23.753 32.641c1.271-.091 14.42-2.177 14.69-15.052"/><path fill="#0e8248" d="M214.841 87.22c-1.021-.003-2.292-.003-8.86-6.295-3.127-2.997-6.457-6.497-7.919-8.32-.636-.791-1.503-1.872-1.185-3.309.226-1.006.399-1.801 9.098-8.3l.073-.054.076-.049c1.644-1.065 3.398-1.604 5.209-1.604 1.831 0 3.244.571 3.925.91l.206.104.185.137c1.471 1.079 5.459 5.815 7.106 7.803l.061.078c.59.765 3.451 4.769 2.194 8.518-.395 1.169-1.31 2.652-3.429 3.609-.38 1.705-1.601 3.545-4.956 6.175l-.37.294-.447.148a3.032 3.032 0 0 1-.964.155h-.003"/><path fill="#fecb99" d="M214.947 84.484c5.893-4.624 3.174-5.44 4.534-6.166 6.253-1.721 1.178-8.342 1.178-8.342s-5.257-6.346-6.617-7.344c-.728-.363-3.356-1.451-6.438.544 0 0-7.89 5.895-8.073 6.71-.179.815 13.783 15.143 15.416 14.598"/><path fill="#065930" d="M214.219 61.187s17.595-27.02 18.77-28.108c6.531-5.17 12.153 3.99 10.429 6.529-.818 1.722-20.401 31.462-20.401 31.462l-8.798-9.883"/><path fill="#148f4d" d="M222.745 79.854s10.156 7.256 22.307 26.84c.632-.178 1.902-1.812 1.359-4.713 0-1.45-16.774-21.942-21.852-23.396-.818-.359-1.814 1.269-1.814 1.269"/><path fill="#d9a69a" d="M219.481 78.318c2.362-.651 3.108-2.001 3.122-3.426-3.358-2.369-13.726-2.221-15.744-11.155-1.967 1.49-7.18 5.487-7.328 6.149-.179.815 13.783 15.143 15.416 14.598 5.893-4.624 3.174-5.44 4.534-6.166"/><path fill="#148f4d" d="M235.802 232.187s11.833-14.282 8.432-28.833c-2.447-9.93-13.327-13.601-13.327-13.601s-5.408-2.284-11.429-3.442c6.639 1.976 34.715 12.606 15.482 46.859.561-.603.842-.983.842-.983M85.92 233.275c8.977-10.065 35.091-25.841 35.091-25.841l-.302-.113c-5.975 2.474-17.523 7.739-24.452 13.987-4.972 3.57-8.873 7.766-10.584 12.041.083-.024.161-.045.247-.074"/><path fill="#1949A0" d="M155.555 172.072c-.021-.024-.025-.004-.014.051.002-.001.005-.002.007-.007.016-.014.022-.031.007-.044"/><path fill="#16b364" d="M144.268 231.779c-.181-1.45.409-3.264.409-3.264s1.542 2.311 2.991 2.858c1.452.542 6.029.635 7.207 0 1.407-1.452.953-5.443.953-5.443l1.497 4.49s3.809.226 5.032-1.088c1.225-1.317 1.225-2.995 1.225-2.995l.678 1.769s3.131 0 4.082-8.16c1.442-12.328-12.414-46.022-12.799-47.804l-.002-.019c-.867.696-28.986 2.999-28.957 24.652.003 1.466.132 3.022.41 4.675 4.489 26.656 16.73 30.465 17.274 30.329"/><path fill="#0d8249" d="M137.875 195.372c-1.812 0-17.589-9.247-7.252-29.375l-5.805 2.899s3.991-15.231 9.431-12.692c4.501 2.1 10.985 4.938 16.789 4.009-5.682-4.083-12.303-9.71-19.52-17.498-.059.086-.114.164-.17.249-11.243 16.957-10.61 27.202-10.61 27.202s-.997 20.131 6.256 26.659v4.625l-1.331 2.366c1.28 6.559 4.496 16.953 12.576 26.377.362 2.174 6.709 3.082 6.709 3.082s12.185.808 18.135-3.082c4.713-3.086 7.319-5.688 6.528-11.424-30.284 19.765-42.617-21.944-31.736-23.397"/><path fill="#065930" d="M155.555 172.072c.015.013.009.03-.007.044l-.005.026c.385 1.782 14.241 35.476 12.799 47.804-.951 8.16-4.082 8.16-4.082 8.16l-.678-1.769s0 1.678-1.225 2.995c-1.223 1.314-5.032 1.088-5.032 1.088l-1.497-4.49s.454 3.991-.953 5.443c-1.178.635-5.755.542-7.207 0-1.449-.547-2.991-2.858-2.991-2.858s-.59 1.814-.409 3.264c-.544.136-12.785-3.673-17.274-30.329a28.514 28.514 0 0 1-.41-4.675c-1.87.418-2.841 1.739-2.27 5.127 4.51 26.799 17.054 32.6 19.916 32.6l.373-.001 2.198-.549c1.487.526 3.804.581 4.743.581 3.196 0 4.27-.577 4.622-.767l.372-.199.291-.302c.046-.048.09-.095.133-.144l.202.014s.314.021.806.021c3.013 0 5.162-.664 6.38-1.971.116-.126.223-.253.328-.382 1.635-.183 4.35-.885 6.366-10.539 2.013-17.818-15.489-48.192-15.489-48.192"/><path fill="#0d8249" d="M129.425 125.048c-2.569-.31-6.133-.673-9.909-1.124 2.73-1.2 5.762-1.442 8.785-1.694a48.632 48.632 0 0 1-1.497-4.938c-10.282-.178-18.613 2.474-24.69 5.495 5.244-1.181 9.731-1.562 10.464.32 1.903 4.898 3.332 1.907 5.986 4.626 1.023 1.051-.25 2.955-2.194 4.897 7.575 1.251 12.427-1.846 14.823-3.926a50.253 50.253 0 0 1-1.768-3.656"/><path fill="#0d8249" d="M126.045 113.628c-2.831-2.209-15.067-9.641-14.76-10.309 5.815 1.273 11.008 3.776 14.181 5.266a49.276 49.276 0 0 1 .336-9.735 102.557 102.557 0 0 0-5.91-3.021c-1.029 1.936-4.114 3.432-11.87 2.593-1.758-.189.86 7.381-.477 5.848-3.882-4.454-7.853-7.184-11.378-8.859 2.95 2.644 4.619 5.33 5.394 6.343 10.269 17.545 24.21 14.147 24.21 14.147s.194-.37.508-.99a45.275 45.275 0 0 1-.234-1.283"/><path fill="#1e8050" d="M185.39 166.724c.157-.397 15.353-15.415 19.234-23.579a48.295 48.295 0 0 1-15.05 8.57c-4.804 6-11.983 12.197-11.983 12.197s-12.207-5.39-23.963-13.968a48.76 48.76 0 0 1-16.413-12.457c-1.462.881-2.906 2.425-3.51 3.571 22.848 25.291 37.992 27.249 38.128 28.064.071.435-7.724 6.216-12.93 9.239.899 1.78 1.916 3.865 2.971 6.163 4.67-2.924 12.834-8.278 17.011-12.452 7.816 3.026 20.328 7.208 24.003 6.12-1.268-2.95 1.634-6.529 1.634-6.529s-9.724-.544-19.132-4.939"/><path fill="#148f4d" d="M260.52 148.68c1.233-.805 2.28-1.626 3.029-2.451 5.437-5.984 6.797-12.647 6.525-20.129-1.765-7.889-13.599-25.84-13.599-25.84s9.068 19.492 10.154 24.208c1.089 4.715-5.658 23.464-6.109 24.212M161.812 232.187c4.558 7.687 6.53 28.106 6.53 28.106s.793.157 1.45 2.723c.998 7.596-14.712 7.389-16.82 3.988.749-.134 11.425 3.131 14.465-5.257-.592-1.745-8.343-28.475-8.343-28.475s.135-.001 2.718-1.085M168.419 216.85c-.526-11.739-8.869-33.82-11.842-41.804.863 6.067 9.84 40.052 11.842 41.804"/><path fill="#989898" d="M202.888 178.192a3.967 3.967 0 0 1-.298-1.193c-2.629.086-16.108-3.557-22.008-6.289-.725.317-1.697 1.362-1.697 1.362 7.816 3.026 20.328 7.208 24.003 6.12"/><path fill="#148f4d" d="M219.392 62.176s2.991.181 5.714-2.175c2.717-2.358 11.151-19.586 11.151-19.586l-.365-5.803s4.445 2.537 4.172 4.987c-.272 2.448-1.902 3.172-2.448 4.624-.547 1.452-12.152 19.948-13.599 20.673-1.454.728-4.354-.906-4.536-2.356"/><path fill="#155933" d="M204.251 183.95c-.676.442-1.436.717-2.262.866a47.063 47.063 0 0 0-1.186 3.031c-3.085 8.617-22.76 12.969-27.746 7.98-1.529-1.528.09-7.071 1.359-9.611.521-1.041.534-1.939.374-2.644-.082.059-.164.119-.246.181-3.436 2.611-6.043 6.418-9.448 8.275a120.21 120.21 0 0 1 3.211 9.046c32.441-.488 40.293-15.493 40.293-15.493s-3.717.002-4.349-1.631M163.174 158.198c2.842.57 3.901.616 4.265.534-4.099-2.293-8.992-5.273-13.811-8.788a48.76 48.76 0 0 1-16.413-12.457c-1.462.881-2.906 2.425-3.51 3.571 5.898 6.529 11.282 11.502 16.03 15.3 4.138 1.535 8.883.93 13.439 1.84M183.969 157.912c1.084.34 2.54.785 4.503 1.374 1.197.359 2.253.589 3.187.72 4.714-5.152 10.724-12.148 12.965-16.861a48.295 48.295 0 0 1-15.05 8.57c-1.711 2.138-3.725 4.299-5.605 6.197"/><path fill="#989898" d="M134.808 139.529c-.469.529-.859 1.063-1.103 1.529 22.848 25.291 37.992 27.249 38.128 28.064.071.435-7.724 6.216-12.93 9.239.243.481.494.984.753 1.504 5.368-3.412 14.596-9.428 15.554-11.058-14.189-6.006-29.269-15.422-40.402-29.278M192.873 150.41a49.477 49.477 0 0 1-3.299 1.305c-4.804 6-11.983 12.197-11.983 12.197s-.093.111 1.903.475c1.542.279 9.729-9.504 13.379-13.977"/><path fill="#148f4d" d="M209.777 242.662s1.27.268 3.175 1.313c0 .906-5.937 5.666-6.255 6.299a3.333 3.333 0 0 0-.272 2.223c.18.816-.726 1.816-.726 1.816s-.044.316-1.088-1.088c-1.043-1.41.181-3.808.181-3.808l4.985-6.755M212 262.112s6.665-2.723 11.561-1.498c3.809 1.631 3.944 8.297 1.359 11.015-2.583 2.723-5.031 2.723-6.799 1.907 4.896-.139 9.655-7.752 3.401-10.338-.544-2.856-9.522-1.086-9.522-1.086"/><path fill="#065930" d="M173.782 155.479c-27.3 0-49.507-22.452-49.507-50.052 0-27.598 22.207-50.051 49.507-50.051 27.298 0 49.505 22.453 49.505 50.051 0 27.6-22.207 50.052-49.505 50.052"/><path fill="#148f4d" d="M219.481 105.427c0 25.539-20.459 46.243-45.699 46.243-25.239 0-45.699-20.704-45.699-46.243 0-25.538 20.46-46.244 45.699-46.244 25.24 0 45.699 20.706 45.699 46.244"/><path fill="#16b364" d="M169.863 59.366c-23.404 2.012-41.78 21.86-41.78 46.061 0 25.539 20.46 46.243 45.699 46.243 15.48 0 29.155-7.796 37.419-19.712a49.992 49.992 0 0 0 5.335-22.533c0-26.535-20.595-48.258-46.673-50.059"/><path fill="#0d8249" d="M192.189 110.866c-15.777-.544-34.82-9.791-34.82-9.791s14.416-2.448 11.969-2.902c-37.473-11.85-17.033-34.445.557-38.818-23.46 1.954-41.903 21.827-41.903 46.072 0 24.117 18.25 43.914 41.535 46.044-14.753-13.742 15.257 1.006 21.573-15.579 1.903-4.622 5.439-24.752 1.089-25.026"/><path fill="#fecb99" d="M133.66 105.836c7.887 3.398 46.378 9.656 79.834.409 4.49 12.511-9.243 48.146-65.826 29.92-15.505-8.705-15.638-31.031-14.008-30.329"/><path fill="#065930" d="M154.196 111.888c9.455 2.245 7.822 11.424 13.533 15.98-7.481-2.72-5.711-11.357-13.533-15.98M194.251 111.955c-9.452 2.245-7.82 11.425-13.533 15.983 7.48-2.722 5.713-11.358 13.533-15.983"/><path fill="#989898" d="M176.59 182.428c7.44-1.747 16.019 3.175 23.349 2.52-5.292-.178-12.185-3.74-16.272-3.81-2.819-.35-5.1.228-7.077 1.29"/><path fill="#065930" d="M162.199 127.188c.409.203 1.497 1.562 1.567 2.176-3.13 6.46-17.887 1.428-18.024-2.856-.543-.884.613-3.401.613-3.401l-2.517 1.632s1.089-7.616 6.461-6.052c8.621 3.853 11.9 8.501 11.9 8.501"/><path fill="#fff" d="M162.085 128.618c.409.203 1.497 1.562 1.566 2.174-3.13 6.461-17.887 1.429-18.024-2.854-.542-.886.613-3.402.613-3.402l-2.516 1.631s1.088-7.616 6.461-6.052c-4.08 14.077 10.88 11.834 11.9 8.503"/><path fill="#159956" d="M151.204 120.729c.647-.341 3.536 2.516 3.536 2.516s-3.638 2.209-.679 6.732c-.034.203-5.611-1.531-2.857-9.248"/><path fill="#fff" d="M160.248 127.853a1.139 1.139 0 1 1-2.277-.001 1.139 1.139 0 0 1 2.277.001M157.597 128.446a.749.749 0 1 1-1.497 0 .749.749 0 0 1 1.497 0"/><path fill="#065930" d="M185.962 127.427c-.408.204-1.497 1.564-1.565 2.176 3.131 6.459 17.887 1.429 18.024-2.855.542-.886-.613-3.401-.613-3.401l2.516 1.63s-1.089-7.615-6.461-6.053c-8.622 3.855-11.901 8.503-11.901 8.503"/><path fill="#fff" d="M186.076 128.856c-.407.204-1.497 1.563-1.563 2.175 3.13 6.461 17.886 1.429 18.022-2.854.543-.885-.612-3.402-.612-3.402l2.516 1.631s-1.089-7.614-6.462-6.052c4.083 14.078-10.881 11.834-11.901 8.502"/><path fill="#159956" d="M196.958 120.968c-.645-.341-3.536 2.515-3.536 2.515s3.638 2.209.68 6.733c.035.203 5.61-1.531 2.856-9.248"/><path fill="#fff" d="M187.913 128.091a1.138 1.138 0 1 0 2.277-.003 1.138 1.138 0 0 0-2.277.003M190.565 128.685a.749.749 0 1 0 1.498.002.749.749 0 0 0-1.498-.002"/></g></svg>
